<?xml version="1.0" encoding="iso-8859-1"?>
<!-- Uploaded to: SVG Repo, www.svgrepo.com, Generator: SVG Repo Mixer Tools -->
<svg fill="#000000" height="800px" width="800px" version="1.1" id="Layer_1" xmlns="http://www.w3.org/2000/svg" xmlns:xlink="http://www.w3.org/1999/xlink" 
	 viewBox="0 0 512 512" xml:space="preserve">
<g>
	<g>
		<g>
			<path d="M437.333,320h-320V112c0-14.728-11.939-26.667-26.667-26.667S64,97.272,64,112v208c0,0.299,0.139,0.544,0.171,0.832
				C27.406,326.08,0.073,357.529,0,394.667v42.667c0,17.673,14.327,32,32,32h10.667v21.333c0,5.891,4.776,10.667,10.667,10.667
				c5.891,0,10.667-4.776,10.667-10.667v-21.333h394.667v21.333c0,5.891,4.776,10.667,10.667,10.667S480,496.558,480,490.667
				v-21.333c17.673,0,32-14.327,32-32v-42.667C511.953,353.449,478.551,320.047,437.333,320z M85.333,112
				c0-2.945,2.388-5.333,5.333-5.333c2.945,0,5.333,2.388,5.333,5.333v208H85.333V112z M490.667,437.333
				c0,5.891-4.776,10.667-10.667,10.667H32c-5.891,0-10.667-4.776-10.667-10.667v-42.667c0.035-29.441,23.893-53.298,53.333-53.333
				h362.667c29.441,0.035,53.298,23.893,53.333,53.333V437.333z"/>
			<path d="M106.667,64c17.673,0,32,14.327,32,32c0,5.891,4.776,10.667,10.667,10.667c5.891,0,10.667-4.776,10.667-10.667
				c-0.035-29.441-23.893-53.298-53.333-53.333C100.776,42.667,96,47.442,96,53.333C96,59.224,100.776,64,106.667,64z"/>
			<path d="M106.667,32c35.329,0.041,63.959,28.671,64,64c0,5.891,4.776,10.667,10.667,10.667c5.891,0,10.667-4.776,10.667-10.667
				c-0.053-47.106-38.227-85.28-85.333-85.333C100.776,10.667,96,15.442,96,21.333C96,27.224,100.776,32,106.667,32z"/>
			<circle cx="96" cy="394.667" r="21.333"/>
			<circle cx="160" cy="394.667" r="21.333"/>
		</g>
	</g>
</g>
</svg>