<?xml version="1.0" encoding="utf-8"?>
<!-- Uploaded to: SVG Repo, www.svgrepo.com, Generator: SVG Repo Mixer Tools -->
<svg fill="#000000" width="800px" height="800px" viewBox="0 0 32 32" version="1.1" xmlns="http://www.w3.org/2000/svg">
<title>hand-holding-bowl-hot</title>
<path d="M29.064 19.701c-0.421-0.177-0.91-0.28-1.423-0.28-0.577 0-1.123 0.13-1.611 0.362l0.023-0.010-5.778 2.595c0.003-0.047 0.026-0.087 0.026-0.134-0.015-1.371-1.129-2.476-2.502-2.476-0.069 0-0.137 0.003-0.204 0.008l0.009-0.001h-3.783l-4.76-1.395c-0.062-0.020-0.133-0.031-0.207-0.031-0.001 0-0.003 0-0.004 0h-2.169v-0.757c-0-0.414-0.336-0.75-0.75-0.75h-3.883c-0.414 0-0.75 0.336-0.75 0.75v0 12.208c0 0.414 0.336 0.75 0.75 0.75h3.883c0.414-0 0.75-0.336 0.75-0.75v0-1.005c1.818 0.284 3.445 0.742 4.987 1.367l-0.149-0.054c1.15 0.416 2.478 0.656 3.862 0.656 0.007 0 0.014 0 0.021-0h-0.001c0.005 0 0.011 0 0.017 0 1.604 0 3.133-0.319 4.528-0.898l-0.078 0.029c1.243-0.553 2.298-1.136 3.297-1.799l-0.082 0.051c0.338-0.209 0.674-0.418 1.014-0.619 1.633-0.967 2.945-1.816 4.129-2.672 0.579-0.412 1.083-0.819 1.563-1.253l-0.014 0.013c0.373-0.302 0.671-0.682 0.871-1.116l0.008-0.019c0.031-0.079 0.048-0.17 0.048-0.266 0-0.057-0.006-0.112-0.018-0.165l0.001 0.005c-0.146-1.017-0.755-1.866-1.603-2.337l-0.016-0.008zM5.181 29.041h-2.383v-10.709h2.383zM28.719 22.541c-0.412 0.37-0.86 0.729-1.328 1.062l-0.047 0.032c-1.143 0.826-2.418 1.65-4.014 2.596-0.348 0.205-0.691 0.418-1.037 0.631-0.854 0.573-1.837 1.12-2.864 1.586l-0.13 0.053c-1.152 0.474-2.49 0.748-3.892 0.748-1.203 0-2.359-0.203-3.436-0.575l0.074 0.022c-1.555-0.648-3.363-1.145-5.248-1.407l-0.117-0.013v-7.436h2.062l4.76 1.395c0.062 0.020 0.133 0.031 0.207 0.031 0.001 0 0.003 0 0.004 0h3.89c0.883 0 1.197 0.521 1.197 0.969s-0.314 0.969-1.197 0.969h-6.809c-0.414 0-0.75 0.336-0.75 0.75s0.336 0.75 0.75 0.75v0h7.781c0.001 0 0.003 0 0.004 0 0.11 0 0.214-0.024 0.307-0.068l-0.004 0.002 7.795-3.5c0.288-0.132 0.625-0.209 0.98-0.209 0.265 0 0.52 0.043 0.758 0.122l-0.017-0.005c0.383 0.23 0.658 0.604 0.752 1.046l0.002 0.011c-0.136 0.159-0.278 0.302-0.429 0.435l-0.005 0.004zM13.457 16.631v0.756c0 0.414 0.336 0.749 0.749 0.749 0 0 0 0 0.001 0h5.609c0 0 0 0 0.001 0 0.414 0 0.749-0.335 0.749-0.749v-0.756c2.512-1.22 4.212-3.751 4.212-6.68 0-0.097-0.002-0.194-0.006-0.29l0 0.014c-0-0.414-0.336-0.75-0.75-0.75h-14.023c-0.414 0-0.75 0.336-0.75 0.75v0c-0.003 0.082-0.005 0.179-0.005 0.276 0 2.929 1.701 5.46 4.168 6.661l0.044 0.019zM23.238 10.425c-0.141 2.304-1.617 4.23-3.658 5.026l-0.039 0.013-0.006 0.004c-0.073 0.033-0.135 0.074-0.19 0.124l0.001-0.001c-0.017 0.014-0.040 0.022-0.056 0.037-0.042 0.046-0.078 0.099-0.108 0.156l-0.002 0.004c-0.017 0.022-0.034 0.047-0.050 0.073l-0.002 0.003c-0.009 0.029-0.017 0.065-0.023 0.101l-0.001 0.004c-0.019 0.053-0.032 0.115-0.036 0.179l-0 0.002-0.002 0.009v0.477h-4.109v-0.477l-0.002-0.008c-0.005-0.070-0.019-0.135-0.040-0.197l0.002 0.005c-0.006-0.038-0.013-0.070-0.023-0.102l0.001 0.005c-0.094-0.142-0.147-0.219-0.201-0.296l0.039 0.059c-0.016-0.015-0.038-0.023-0.056-0.037-0.054-0.049-0.117-0.090-0.185-0.121l-0.005-0.002-0.006-0.004c-2.080-0.809-3.556-2.735-3.696-5.023l-0.001-0.016zM19.365 7.4c0.135 0.213 0.369 0.353 0.636 0.353 0.415 0 0.75-0.336 0.75-0.75 0-0.15-0.044-0.289-0.119-0.406l0.002 0.003-0.5-0.791 3.115-1.102c0.294-0.106 0.5-0.383 0.5-0.707 0-0.259-0.131-0.488-0.331-0.622l-0.003-0.002-3-2c-0.118-0.082-0.265-0.131-0.423-0.131-0.414 0-0.75 0.336-0.75 0.75 0 0.262 0.134 0.493 0.338 0.627l0.003 0.002 1.752 1.169-2.586 0.914c-0.294 0.106-0.501 0.382-0.501 0.707 0 0.148 0.043 0.287 0.118 0.403l-0.002-0.003zM12.813 7.4c0.136 0.209 0.368 0.346 0.632 0.346 0.415 0 0.751-0.336 0.751-0.75 0-0.147-0.042-0.284-0.115-0.399l0.002 0.003-0.5-0.791 3.115-1.102c0.294-0.106 0.5-0.383 0.5-0.707 0-0.259-0.131-0.488-0.331-0.622l-0.003-0.002-3-2c-0.118-0.082-0.265-0.131-0.423-0.131-0.414 0-0.75 0.336-0.75 0.75 0 0.262 0.134 0.493 0.338 0.627l0.003 0.002 1.753 1.169-2.587 0.914c-0.294 0.106-0.501 0.382-0.501 0.707 0 0.148 0.043 0.287 0.118 0.403l-0.002-0.003z"></path>
</svg>