<?xml version="1.0" encoding="utf-8"?>
<!-- Uploaded to: SVG Repo, www.svgrepo.com, Generator: SVG Repo Mixer Tools -->
<svg width="800px" height="800px" viewBox="0 0 24 24" id="Layer_1" data-name="Layer 1" xmlns="http://www.w3.org/2000/svg" xmlns:xlink="http://www.w3.org/1999/xlink">
<defs>
<style>.cls-1{fill:none;}.cls-2{clip-path:url(#clip-path);}</style>
<clipPath id="clip-path">
<rect class="cls-1" x="0.06" width="24" height="24"/>
</clipPath>
</defs>
<title>bank</title>
<g class="cls-2">
<path d="M21.46,21.51H2.54a1,1,0,1,1,0-2H21.46a1,1,0,0,1,0,2Z"/>
<path d="M19.58,21.51a1,1,0,0,1-1-1V18.67H5.42v1.84a1,1,0,0,1-2,0V17.67a1,1,0,0,1,1-1H19.58a1,1,0,0,1,1,1v2.84A1,1,0,0,1,19.58,21.51Z"/>
<path d="M7.27,15.84a1,1,0,0,1-1-1V9.16a1,1,0,0,1,2,0v5.68A1,1,0,0,1,7.27,15.84Z"/>
<path d="M12,15.84a1,1,0,0,1-1-1V7.27a1,1,0,0,1,2,0v7.57A1,1,0,0,1,12,15.84Z"/>
<path d="M16.73,15.84a1,1,0,0,1-1-1V9.16a1,1,0,0,1,2,0v5.68A1,1,0,0,1,16.73,15.84Z"/>
<path d="M3,9.22a1,1,0,0,1-.9-.56,1,1,0,0,1,.45-1.34L12,2.59a1,1,0,0,1,.93,0l8.51,4.72a1,1,0,1,1-1,1.75l-8-4.47-9,4.49A1,1,0,0,1,3,9.22Z"/>
</g>
</svg>