<?xml version="1.0" encoding="iso-8859-1"?>
<!-- Uploaded to: SVG Repo, www.svgrepo.com, Generator: SVG Repo Mixer Tools -->
<svg fill="#000000" height="800px" width="800px" version="1.1" id="Capa_1" xmlns="http://www.w3.org/2000/svg" xmlns:xlink="http://www.w3.org/1999/xlink" 
	 viewBox="0 0 18.512 18.512" xml:space="preserve">
<g>
	<path d="M17.111,17.367c0.028-0.15,0.024-0.355-0.094-0.58c-0.331-0.635-0.919-0.607-0.919-0.607s-0.104-0.078-0.409-0.367
		c-0.307-0.289-0.678-1.062-0.92-1.371c-0.359-0.457-0.684-0.535-0.786-0.551c-0.216-0.242-0.468-0.57-0.645-0.951
		c-0.385-0.814-0.486-1.289-0.844-2.715c-0.245-0.971-0.752-1.303-1.047-1.417V8.197h-0.23V7.433h-0.259L9.471,0H9.043l-1.49,7.433
		h-0.26v0.765h-0.23v0.61C6.767,8.921,6.26,9.253,6.016,10.225c-0.357,1.426-0.46,1.9-0.841,2.715
		c-0.18,0.381-0.432,0.709-0.647,0.951c-0.099,0.016-0.424,0.094-0.784,0.551c-0.241,0.309-0.611,1.082-0.919,1.371
		c-0.307,0.289-0.408,0.367-0.408,0.367s-0.589-0.025-0.921,0.607c-0.117,0.225-0.121,0.43-0.095,0.58H0.598v1.145h17.316v-1.145
		H17.111z M4.578,14.283l0.227-0.119h8.903l0.229,0.119c0.021,0.002,0.167,0.025,0.37,0.223H4.206
		C4.41,14.311,4.557,14.285,4.578,14.283z M3.734,15.176c0.039-0.066,0.078-0.131,0.114-0.191h10.817
		c0.036,0.061,0.075,0.125,0.114,0.191c0.029,0.049,0.061,0.1,0.089,0.148H3.644C3.676,15.274,3.703,15.225,3.734,15.176z
		 M3.043,16.143c0.013-0.014,0.026-0.025,0.04-0.039c0.085-0.08,0.171-0.184,0.257-0.301h11.837
		c0.084,0.117,0.169,0.221,0.255,0.301c0.014,0.014,0.025,0.025,0.04,0.039H3.043z"/>
</g>
</svg>